<mxfile host="app.diagrams.net" modified="2023-08-13T22:38:38.978Z" agent="Mozilla/5.0 (Windows NT 10.0; Win64; x64) AppleWebKit/537.36 (KHTML, like Gecko) Chrome/115.0.0.0 Safari/537.36" etag="Ku3wYe5IPR4tIeIx0Wod" version="21.6.8" type="device">
  <diagram name="Page-1" id="C9dpri4JRgC6EOPoBy6x">
    <mxGraphModel dx="1136" dy="625" grid="1" gridSize="10" guides="1" tooltips="1" connect="1" arrows="1" fold="1" page="1" pageScale="1" pageWidth="850" pageHeight="1100" math="0" shadow="0">
      <root>
        <mxCell id="0" />
        <mxCell id="1" parent="0" />
        <mxCell id="30FCmtbAkWL086FPSBVc-1" value="Region" style="points=[[0,0],[0.25,0],[0.5,0],[0.75,0],[1,0],[1,0.25],[1,0.5],[1,0.75],[1,1],[0.75,1],[0.5,1],[0.25,1],[0,1],[0,0.75],[0,0.5],[0,0.25]];outlineConnect=0;gradientColor=none;html=1;whiteSpace=wrap;fontSize=12;fontStyle=0;container=1;pointerEvents=0;collapsible=0;recursiveResize=0;shape=mxgraph.aws4.group;grIcon=mxgraph.aws4.group_region;strokeColor=#147EBA;fillColor=none;verticalAlign=top;align=left;spacingLeft=30;fontColor=#147EBA;dashed=1;" vertex="1" parent="1">
          <mxGeometry x="40" y="90" width="790" height="470" as="geometry" />
        </mxCell>
        <mxCell id="30FCmtbAkWL086FPSBVc-53" style="edgeStyle=orthogonalEdgeStyle;curved=1;rounded=0;orthogonalLoop=1;jettySize=auto;html=1;" edge="1" parent="30FCmtbAkWL086FPSBVc-1" source="30FCmtbAkWL086FPSBVc-2" target="30FCmtbAkWL086FPSBVc-52">
          <mxGeometry relative="1" as="geometry" />
        </mxCell>
        <mxCell id="30FCmtbAkWL086FPSBVc-2" value="" style="outlineConnect=0;dashed=0;verticalLabelPosition=bottom;verticalAlign=top;align=center;html=1;shape=mxgraph.aws3.lambda_function;fillColor=#F58534;gradientColor=none;" vertex="1" parent="30FCmtbAkWL086FPSBVc-1">
          <mxGeometry x="312" y="125.02000000000001" width="39" height="40.7" as="geometry" />
        </mxCell>
        <mxCell id="30FCmtbAkWL086FPSBVc-4" value="" style="html=1;verticalLabelPosition=bottom;labelBackgroundColor=#ffffff;verticalAlign=top;shadow=0;dashed=0;strokeWidth=1;shape=mxgraph.ios7.misc.iphone;strokeColor=#c0c0c0;" vertex="1" parent="30FCmtbAkWL086FPSBVc-1">
          <mxGeometry x="10" y="129.1" width="80" height="154" as="geometry" />
        </mxCell>
        <mxCell id="30FCmtbAkWL086FPSBVc-5" value="" style="html=1;verticalLabelPosition=bottom;align=center;labelBackgroundColor=#ffffff;verticalAlign=top;strokeWidth=2;strokeColor=#0080F0;shadow=0;dashed=0;shape=mxgraph.ios7.icons.user;" vertex="1" parent="30FCmtbAkWL086FPSBVc-1">
          <mxGeometry x="35" y="191.1" width="30" height="30" as="geometry" />
        </mxCell>
        <mxCell id="30FCmtbAkWL086FPSBVc-6" value="" style="outlineConnect=0;dashed=0;verticalLabelPosition=bottom;verticalAlign=top;align=center;html=1;shape=mxgraph.aws3.cognito;fillColor=#AD688B;gradientColor=none;" vertex="1" parent="30FCmtbAkWL086FPSBVc-1">
          <mxGeometry x="188" y="20.000000000000018" width="46.5" height="56.53" as="geometry" />
        </mxCell>
        <mxCell id="30FCmtbAkWL086FPSBVc-7" value="" style="outlineConnect=0;dashed=0;verticalLabelPosition=bottom;verticalAlign=top;align=center;html=1;shape=mxgraph.aws3.api_gateway;fillColor=#D9A741;gradientColor=none;" vertex="1" parent="30FCmtbAkWL086FPSBVc-1">
          <mxGeometry x="177" y="117.10000000000002" width="46.5" height="56.53" as="geometry" />
        </mxCell>
        <mxCell id="30FCmtbAkWL086FPSBVc-23" value="" style="endArrow=classic;startArrow=classic;html=1;rounded=0;exitX=0;exitY=0.5;exitDx=0;exitDy=0;exitPerimeter=0;entryX=0.577;entryY=-0.003;entryDx=0;entryDy=0;entryPerimeter=0;edgeStyle=orthogonalEdgeStyle;curved=1;" edge="1" parent="30FCmtbAkWL086FPSBVc-1" target="30FCmtbAkWL086FPSBVc-4">
          <mxGeometry width="50" height="50" relative="1" as="geometry">
            <mxPoint x="177" y="51.36499999999999" as="sourcePoint" />
            <mxPoint x="137.8517741719549" y="119.62999999999997" as="targetPoint" />
          </mxGeometry>
        </mxCell>
        <mxCell id="30FCmtbAkWL086FPSBVc-95" style="edgeStyle=orthogonalEdgeStyle;curved=1;rounded=0;orthogonalLoop=1;jettySize=auto;html=1;" edge="1" parent="30FCmtbAkWL086FPSBVc-1" source="30FCmtbAkWL086FPSBVc-33" target="30FCmtbAkWL086FPSBVc-45">
          <mxGeometry relative="1" as="geometry" />
        </mxCell>
        <mxCell id="30FCmtbAkWL086FPSBVc-33" value="" style="sketch=0;points=[[0,0,0],[0.25,0,0],[0.5,0,0],[0.75,0,0],[1,0,0],[0,1,0],[0.25,1,0],[0.5,1,0],[0.75,1,0],[1,1,0],[0,0.25,0],[0,0.5,0],[0,0.75,0],[1,0.25,0],[1,0.5,0],[1,0.75,0]];outlineConnect=0;fontColor=#232F3E;gradientColor=#60A337;gradientDirection=north;fillColor=#277116;strokeColor=#ffffff;dashed=0;verticalLabelPosition=bottom;verticalAlign=top;align=center;html=1;fontSize=12;fontStyle=0;aspect=fixed;shape=mxgraph.aws4.resourceIcon;resIcon=mxgraph.aws4.s3;" vertex="1" parent="30FCmtbAkWL086FPSBVc-1">
          <mxGeometry x="275" y="191.1" width="48" height="48" as="geometry" />
        </mxCell>
        <mxCell id="30FCmtbAkWL086FPSBVc-41" value="" style="endArrow=classic;startArrow=classic;html=1;rounded=0;curved=1;entryX=0;entryY=0.5;entryDx=0;entryDy=0;entryPerimeter=0;" edge="1" parent="30FCmtbAkWL086FPSBVc-1" source="30FCmtbAkWL086FPSBVc-7" target="30FCmtbAkWL086FPSBVc-2">
          <mxGeometry width="50" height="50" relative="1" as="geometry">
            <mxPoint x="267" y="213.1" as="sourcePoint" />
            <mxPoint x="317" y="163.1" as="targetPoint" />
          </mxGeometry>
        </mxCell>
        <mxCell id="30FCmtbAkWL086FPSBVc-42" value="" style="endArrow=classic;startArrow=classic;html=1;rounded=0;entryX=0.987;entryY=0.471;entryDx=0;entryDy=0;entryPerimeter=0;edgeStyle=orthogonalEdgeStyle;curved=1;" edge="1" parent="30FCmtbAkWL086FPSBVc-1" source="30FCmtbAkWL086FPSBVc-7" target="30FCmtbAkWL086FPSBVc-4">
          <mxGeometry width="50" height="50" relative="1" as="geometry">
            <mxPoint x="210" y="78.1" as="sourcePoint" />
            <mxPoint x="66" y="139.1" as="targetPoint" />
          </mxGeometry>
        </mxCell>
        <mxCell id="30FCmtbAkWL086FPSBVc-43" value="" style="endArrow=classic;html=1;rounded=0;curved=1;entryX=0;entryY=0.5;entryDx=0;entryDy=0;entryPerimeter=0;exitX=1;exitY=0.545;exitDx=0;exitDy=0;exitPerimeter=0;" edge="1" parent="30FCmtbAkWL086FPSBVc-1" source="30FCmtbAkWL086FPSBVc-4" target="30FCmtbAkWL086FPSBVc-33">
          <mxGeometry width="50" height="50" relative="1" as="geometry">
            <mxPoint x="300" y="213.1" as="sourcePoint" />
            <mxPoint x="350" y="163.1" as="targetPoint" />
          </mxGeometry>
        </mxCell>
        <mxCell id="30FCmtbAkWL086FPSBVc-44" value="" style="endArrow=classic;startArrow=classic;html=1;rounded=0;curved=1;entryX=0.5;entryY=0;entryDx=0;entryDy=0;entryPerimeter=0;" edge="1" parent="30FCmtbAkWL086FPSBVc-1" target="30FCmtbAkWL086FPSBVc-7">
          <mxGeometry width="50" height="50" relative="1" as="geometry">
            <mxPoint x="200.25" y="79.62999999999997" as="sourcePoint" />
            <mxPoint x="317" y="163.1" as="targetPoint" />
          </mxGeometry>
        </mxCell>
        <mxCell id="30FCmtbAkWL086FPSBVc-101" style="edgeStyle=orthogonalEdgeStyle;curved=1;rounded=0;orthogonalLoop=1;jettySize=auto;html=1;entryX=0;entryY=0.5;entryDx=0;entryDy=0;entryPerimeter=0;" edge="1" parent="30FCmtbAkWL086FPSBVc-1" source="30FCmtbAkWL086FPSBVc-45" target="30FCmtbAkWL086FPSBVc-98">
          <mxGeometry relative="1" as="geometry" />
        </mxCell>
        <mxCell id="30FCmtbAkWL086FPSBVc-45" value="" style="outlineConnect=0;dashed=0;verticalLabelPosition=bottom;verticalAlign=top;align=center;html=1;shape=mxgraph.aws3.lambda_function;fillColor=#F58534;gradientColor=none;" vertex="1" parent="30FCmtbAkWL086FPSBVc-1">
          <mxGeometry x="400" y="195.10000000000002" width="39" height="40.7" as="geometry" />
        </mxCell>
        <mxCell id="30FCmtbAkWL086FPSBVc-47" value="AWS Step Functions workflow" style="points=[[0,0],[0.25,0],[0.5,0],[0.75,0],[1,0],[1,0.25],[1,0.5],[1,0.75],[1,1],[0.75,1],[0.5,1],[0.25,1],[0,1],[0,0.75],[0,0.5],[0,0.25]];outlineConnect=0;gradientColor=none;html=1;whiteSpace=wrap;fontSize=12;fontStyle=0;container=1;pointerEvents=0;collapsible=0;recursiveResize=0;shape=mxgraph.aws4.group;grIcon=mxgraph.aws4.group_aws_step_functions_workflow;strokeColor=#CD2264;fillColor=none;verticalAlign=top;align=left;spacingLeft=30;fontColor=#CD2264;dashed=0;" vertex="1" parent="30FCmtbAkWL086FPSBVc-1">
          <mxGeometry x="580" y="93.63" width="189" height="325.47" as="geometry" />
        </mxCell>
        <mxCell id="30FCmtbAkWL086FPSBVc-122" style="edgeStyle=none;rounded=0;orthogonalLoop=1;jettySize=auto;html=1;" edge="1" parent="30FCmtbAkWL086FPSBVc-47" source="30FCmtbAkWL086FPSBVc-98" target="30FCmtbAkWL086FPSBVc-99">
          <mxGeometry relative="1" as="geometry" />
        </mxCell>
        <mxCell id="30FCmtbAkWL086FPSBVc-98" value="" style="outlineConnect=0;dashed=0;verticalLabelPosition=bottom;verticalAlign=top;align=center;html=1;shape=mxgraph.aws3.lambda_function;fillColor=#F58534;gradientColor=none;" vertex="1" parent="30FCmtbAkWL086FPSBVc-47">
          <mxGeometry x="20" y="57.77000000000001" width="39" height="40.7" as="geometry" />
        </mxCell>
        <mxCell id="30FCmtbAkWL086FPSBVc-123" style="edgeStyle=none;rounded=0;orthogonalLoop=1;jettySize=auto;html=1;" edge="1" parent="30FCmtbAkWL086FPSBVc-47" source="30FCmtbAkWL086FPSBVc-99" target="30FCmtbAkWL086FPSBVc-100">
          <mxGeometry relative="1" as="geometry" />
        </mxCell>
        <mxCell id="30FCmtbAkWL086FPSBVc-99" value="" style="outlineConnect=0;dashed=0;verticalLabelPosition=bottom;verticalAlign=top;align=center;html=1;shape=mxgraph.aws3.lambda_function;fillColor=#F58534;gradientColor=none;" vertex="1" parent="30FCmtbAkWL086FPSBVc-47">
          <mxGeometry x="20" y="113.47" width="39" height="40.7" as="geometry" />
        </mxCell>
        <mxCell id="30FCmtbAkWL086FPSBVc-124" style="edgeStyle=none;rounded=0;orthogonalLoop=1;jettySize=auto;html=1;" edge="1" parent="30FCmtbAkWL086FPSBVc-47" source="30FCmtbAkWL086FPSBVc-100" target="30FCmtbAkWL086FPSBVc-105">
          <mxGeometry relative="1" as="geometry" />
        </mxCell>
        <mxCell id="30FCmtbAkWL086FPSBVc-100" value="" style="outlineConnect=0;dashed=0;verticalLabelPosition=bottom;verticalAlign=top;align=center;html=1;shape=mxgraph.aws3.lambda_function;fillColor=#F58534;gradientColor=none;" vertex="1" parent="30FCmtbAkWL086FPSBVc-47">
          <mxGeometry x="20" y="175.47" width="39" height="40.7" as="geometry" />
        </mxCell>
        <mxCell id="30FCmtbAkWL086FPSBVc-102" value="&lt;span style=&quot;font-size: 10px;&quot;&gt;Transcode Audio if necessary&lt;/span&gt;" style="text;html=1;strokeColor=none;fillColor=none;align=left;verticalAlign=middle;whiteSpace=wrap;rounded=0;" vertex="1" parent="30FCmtbAkWL086FPSBVc-47">
          <mxGeometry x="70" y="63.12" width="110" height="30" as="geometry" />
        </mxCell>
        <mxCell id="30FCmtbAkWL086FPSBVc-103" value="&lt;span style=&quot;font-size: 10px;&quot;&gt;Chunk audio , Transcribe with Whisper API&lt;/span&gt;" style="text;html=1;strokeColor=none;fillColor=none;align=left;verticalAlign=middle;whiteSpace=wrap;rounded=0;" vertex="1" parent="30FCmtbAkWL086FPSBVc-47">
          <mxGeometry x="70" y="113.47" width="110" height="41.18" as="geometry" />
        </mxCell>
        <mxCell id="30FCmtbAkWL086FPSBVc-104" value="&lt;span style=&quot;font-size: 10px;&quot;&gt;Summarize/others with OpenAI API&lt;br&gt;&lt;/span&gt;" style="text;html=1;strokeColor=none;fillColor=none;align=left;verticalAlign=middle;whiteSpace=wrap;rounded=0;" vertex="1" parent="30FCmtbAkWL086FPSBVc-47">
          <mxGeometry x="70" y="175.46999999999997" width="110" height="41.18" as="geometry" />
        </mxCell>
        <mxCell id="30FCmtbAkWL086FPSBVc-105" value="" style="outlineConnect=0;dashed=0;verticalLabelPosition=bottom;verticalAlign=top;align=center;html=1;shape=mxgraph.aws3.lambda_function;fillColor=#F58534;gradientColor=none;" vertex="1" parent="30FCmtbAkWL086FPSBVc-47">
          <mxGeometry x="20" y="239.95000000000002" width="39" height="40.7" as="geometry" />
        </mxCell>
        <mxCell id="30FCmtbAkWL086FPSBVc-121" value="&lt;span style=&quot;font-size: 10px;&quot;&gt;Products handling&lt;br&gt;&lt;/span&gt;" style="text;html=1;strokeColor=none;fillColor=none;align=left;verticalAlign=middle;whiteSpace=wrap;rounded=0;" vertex="1" parent="30FCmtbAkWL086FPSBVc-47">
          <mxGeometry x="70" y="239.47" width="110" height="41.18" as="geometry" />
        </mxCell>
        <mxCell id="30FCmtbAkWL086FPSBVc-48" value="&lt;font style=&quot;font-size: 10px;&quot;&gt;Signin&lt;/font&gt;" style="text;html=1;strokeColor=none;fillColor=none;align=center;verticalAlign=middle;whiteSpace=wrap;rounded=0;" vertex="1" parent="30FCmtbAkWL086FPSBVc-1">
          <mxGeometry x="50" y="36.37" width="60" height="30" as="geometry" />
        </mxCell>
        <mxCell id="30FCmtbAkWL086FPSBVc-49" value="&lt;font style=&quot;font-size: 10px;&quot;&gt;Token Validation&lt;/font&gt;" style="text;html=1;strokeColor=none;fillColor=none;align=center;verticalAlign=middle;whiteSpace=wrap;rounded=0;" vertex="1" parent="30FCmtbAkWL086FPSBVc-1">
          <mxGeometry x="140" y="80.36999999999998" width="60" height="30" as="geometry" />
        </mxCell>
        <mxCell id="30FCmtbAkWL086FPSBVc-50" value="&lt;font style=&quot;font-size: 10px;&quot;&gt;s3 Presign url&lt;/font&gt;" style="text;html=1;strokeColor=none;fillColor=none;align=center;verticalAlign=middle;whiteSpace=wrap;rounded=0;" vertex="1" parent="30FCmtbAkWL086FPSBVc-1">
          <mxGeometry x="236" y="115.1" width="70" height="30" as="geometry" />
        </mxCell>
        <mxCell id="30FCmtbAkWL086FPSBVc-52" value="" style="outlineConnect=0;dashed=0;verticalLabelPosition=bottom;verticalAlign=top;align=center;html=1;shape=mxgraph.aws3.dynamo_db;fillColor=#2E73B8;gradientColor=none;" vertex="1" parent="30FCmtbAkWL086FPSBVc-1">
          <mxGeometry x="427" y="56.6" width="52" height="58.5" as="geometry" />
        </mxCell>
        <mxCell id="30FCmtbAkWL086FPSBVc-73" value="&lt;font style=&quot;font-size: 10px;&quot;&gt;record&lt;/font&gt;" style="text;html=1;strokeColor=none;fillColor=none;align=center;verticalAlign=middle;whiteSpace=wrap;rounded=0;" vertex="1" parent="30FCmtbAkWL086FPSBVc-1">
          <mxGeometry x="360" y="117.1" width="70" height="20.53" as="geometry" />
        </mxCell>
        <mxCell id="30FCmtbAkWL086FPSBVc-94" value="&lt;font style=&quot;font-size: 10px;&quot;&gt;Upload video &amp;gt; 20 MB&lt;/font&gt;" style="text;html=1;strokeColor=none;fillColor=none;align=center;verticalAlign=middle;whiteSpace=wrap;rounded=0;" vertex="1" parent="30FCmtbAkWL086FPSBVc-1">
          <mxGeometry x="150" y="213.1" width="110" height="30" as="geometry" />
        </mxCell>
        <mxCell id="30FCmtbAkWL086FPSBVc-96" value="&lt;font style=&quot;font-size: 10px;&quot;&gt;Trigger lambda&lt;/font&gt;" style="text;html=1;strokeColor=none;fillColor=none;align=center;verticalAlign=middle;whiteSpace=wrap;rounded=0;" vertex="1" parent="30FCmtbAkWL086FPSBVc-1">
          <mxGeometry x="323" y="221.1" width="66" height="30" as="geometry" />
        </mxCell>
        <mxCell id="30FCmtbAkWL086FPSBVc-97" value="&lt;font style=&quot;font-size: 10px;&quot;&gt;Trigger Stepmachine&lt;/font&gt;" style="text;html=1;strokeColor=none;fillColor=none;align=center;verticalAlign=middle;whiteSpace=wrap;rounded=0;rotation=0;" vertex="1" parent="30FCmtbAkWL086FPSBVc-1">
          <mxGeometry x="430" y="161.1" width="60" height="30" as="geometry" />
        </mxCell>
        <mxCell id="30FCmtbAkWL086FPSBVc-107" value="" style="outlineConnect=0;dashed=0;verticalLabelPosition=bottom;verticalAlign=top;align=center;html=1;shape=mxgraph.aws3.dynamo_db;fillColor=#2E73B8;gradientColor=none;" vertex="1" parent="30FCmtbAkWL086FPSBVc-1">
          <mxGeometry x="271" y="338.58000000000004" width="52" height="58.5" as="geometry" />
        </mxCell>
        <mxCell id="30FCmtbAkWL086FPSBVc-108" style="edgeStyle=orthogonalEdgeStyle;curved=1;rounded=0;orthogonalLoop=1;jettySize=auto;html=1;strokeColor=default;startArrow=classic;startFill=1;" edge="1" parent="30FCmtbAkWL086FPSBVc-1" source="30FCmtbAkWL086FPSBVc-105" target="30FCmtbAkWL086FPSBVc-33">
          <mxGeometry relative="1" as="geometry" />
        </mxCell>
        <mxCell id="30FCmtbAkWL086FPSBVc-111" value="&lt;font style=&quot;font-size: 10px;&quot;&gt;- Create HTML product files&lt;br&gt;- Get S3 Presign Url to download&lt;br&gt;&lt;/font&gt;" style="text;html=1;strokeColor=none;fillColor=none;align=center;verticalAlign=middle;whiteSpace=wrap;rounded=0;" vertex="1" parent="30FCmtbAkWL086FPSBVc-1">
          <mxGeometry x="410" y="300" width="150" height="30" as="geometry" />
        </mxCell>
        <mxCell id="30FCmtbAkWL086FPSBVc-114" style="edgeStyle=orthogonalEdgeStyle;curved=1;rounded=0;orthogonalLoop=1;jettySize=auto;html=1;entryX=1;entryY=0.5;entryDx=0;entryDy=0;entryPerimeter=0;exitX=0.145;exitY=0.855;exitDx=0;exitDy=0;exitPerimeter=0;" edge="1" parent="30FCmtbAkWL086FPSBVc-1" source="30FCmtbAkWL086FPSBVc-105" target="30FCmtbAkWL086FPSBVc-107">
          <mxGeometry relative="1" as="geometry" />
        </mxCell>
        <mxCell id="30FCmtbAkWL086FPSBVc-115" value="&lt;span style=&quot;font-size: 10px;&quot;&gt;Record&lt;/span&gt;" style="text;html=1;strokeColor=none;fillColor=none;align=center;verticalAlign=middle;whiteSpace=wrap;rounded=0;" vertex="1" parent="30FCmtbAkWL086FPSBVc-1">
          <mxGeometry x="384.5" y="371.3" width="70" height="20.53" as="geometry" />
        </mxCell>
        <mxCell id="30FCmtbAkWL086FPSBVc-120" style="edgeStyle=orthogonalEdgeStyle;rounded=0;orthogonalLoop=1;jettySize=auto;html=1;exitX=0;exitY=0.5;exitDx=0;exitDy=0;exitPerimeter=0;entryX=0.487;entryY=1.003;entryDx=0;entryDy=0;entryPerimeter=0;curved=1;" edge="1" parent="30FCmtbAkWL086FPSBVc-1" source="30FCmtbAkWL086FPSBVc-116" target="30FCmtbAkWL086FPSBVc-4">
          <mxGeometry relative="1" as="geometry" />
        </mxCell>
        <mxCell id="30FCmtbAkWL086FPSBVc-116" value="" style="sketch=0;points=[[0,0,0],[0.25,0,0],[0.5,0,0],[0.75,0,0],[1,0,0],[0,1,0],[0.25,1,0],[0.5,1,0],[0.75,1,0],[1,1,0],[0,0.25,0],[0,0.5,0],[0,0.75,0],[1,0.25,0],[1,0.5,0],[1,0.75,0]];outlineConnect=0;fontColor=#232F3E;gradientColor=#4D72F3;gradientDirection=north;fillColor=#3334B9;strokeColor=#ffffff;dashed=0;verticalLabelPosition=bottom;verticalAlign=top;align=center;html=1;fontSize=12;fontStyle=0;aspect=fixed;shape=mxgraph.aws4.resourceIcon;resIcon=mxgraph.aws4.simple_email_service;" vertex="1" parent="30FCmtbAkWL086FPSBVc-1">
          <mxGeometry x="102" y="374.28000000000003" width="48" height="48" as="geometry" />
        </mxCell>
        <mxCell id="30FCmtbAkWL086FPSBVc-118" style="edgeStyle=orthogonalEdgeStyle;curved=1;rounded=0;orthogonalLoop=1;jettySize=auto;html=1;entryX=0.5;entryY=1;entryDx=0;entryDy=0;entryPerimeter=0;exitX=0.5;exitY=1;exitDx=0;exitDy=0;exitPerimeter=0;" edge="1" parent="30FCmtbAkWL086FPSBVc-1" source="30FCmtbAkWL086FPSBVc-105" target="30FCmtbAkWL086FPSBVc-116">
          <mxGeometry relative="1" as="geometry" />
        </mxCell>
        <mxCell id="30FCmtbAkWL086FPSBVc-119" value="&lt;font style=&quot;font-size: 10px;&quot;&gt;Use SES to send products to Client&lt;/font&gt;" style="text;html=1;strokeColor=none;fillColor=none;align=center;verticalAlign=middle;whiteSpace=wrap;rounded=0;" vertex="1" parent="30FCmtbAkWL086FPSBVc-1">
          <mxGeometry x="258" y="439" width="181" height="20.53" as="geometry" />
        </mxCell>
      </root>
    </mxGraphModel>
  </diagram>
</mxfile>
